<svg width="16" height="16" viewBox="0 0 16 16" fill="none" xmlns="http://www.w3.org/2000/svg">
<g clip-path="url(#clip0_56_1546)">
<path d="M14.6665 13.28V11.28C14.6746 10.953 14.5622 10.6345 14.3508 10.385C14.1394 10.1355 13.8436 9.97234 13.5198 9.92665C12.8797 9.84224 12.2513 9.68568 11.6465 9.45998C11.4078 9.37029 11.1485 9.35088 10.8992 9.40405C10.6499 9.45722 10.4211 9.58074 10.2398 9.75998L9.39313 10.6067C7.7241 9.65761 6.34216 8.27568 5.39313 6.60665L6.23979 5.75998C6.41903 5.57872 6.54256 5.34988 6.59573 5.10057C6.6489 4.85126 6.62949 4.59193 6.53979 4.35332C6.31409 3.74847 6.15754 3.12003 6.07313 2.47998C6.02784 2.15961 5.86761 1.86664 5.6223 1.65567C5.37699 1.4447 5.06333 1.33013 4.73979 1.33332H2.73979C2.55469 1.33349 2.37164 1.37221 2.20232 1.447C2.033 1.52179 1.8811 1.63102 1.7563 1.76773C1.63151 1.90444 1.53654 2.06564 1.47746 2.24107C1.41838 2.41649 1.39647 2.60229 1.41313 2.78665C1.63195 4.84731 2.33311 6.82745 3.45979 8.56665C4.48335 10.1774 5.84901 11.5431 7.45979 12.5667C9.19113 13.6894 11.1617 14.3904 13.2131 14.6133C13.398 14.63 13.5844 14.6079 13.7603 14.5485C13.9362 14.489 14.0977 14.3934 14.2345 14.2679C14.3713 14.1424 14.4804 13.9897 14.5548 13.8195C14.6292 13.6494 14.6672 13.4657 14.6665 13.28Z" stroke="#1F1F1F" stroke-width="1.4" stroke-linecap="round" stroke-linejoin="round"/>
<path d="M14.6665 13.28V11.28C14.6746 10.953 14.5622 10.6345 14.3508 10.385C14.1394 10.1355 13.8436 9.97234 13.5198 9.92665C12.8797 9.84224 12.2513 9.68568 11.6465 9.45998C11.4078 9.37029 11.1485 9.35088 10.8992 9.40405C10.6499 9.45722 10.4211 9.58074 10.2398 9.75998L9.39313 10.6067C7.7241 9.65761 6.34216 8.27568 5.39313 6.60665L6.23979 5.75998C6.41903 5.57872 6.54256 5.34988 6.59573 5.10057C6.6489 4.85126 6.62949 4.59193 6.53979 4.35332C6.31409 3.74847 6.15754 3.12003 6.07313 2.47998C6.02784 2.15961 5.86761 1.86664 5.6223 1.65567C5.37699 1.4447 5.06333 1.33013 4.73979 1.33332H2.73979C2.55469 1.33349 2.37164 1.37221 2.20232 1.447C2.033 1.52179 1.8811 1.63102 1.7563 1.76773C1.63151 1.90444 1.53654 2.06564 1.47746 2.24107C1.41838 2.41649 1.39647 2.60229 1.41313 2.78665C1.63195 4.84731 2.33311 6.82745 3.45979 8.56665C4.48335 10.1774 5.84901 11.5431 7.45979 12.5667C9.19113 13.6894 11.1617 14.3904 13.2131 14.6133C13.398 14.63 13.5844 14.6079 13.7603 14.5485C13.9362 14.489 14.0977 14.3934 14.2345 14.2679C14.3713 14.1424 14.4804 13.9897 14.5548 13.8195C14.6292 13.6494 14.6672 13.4657 14.6665 13.28Z" stroke="black" stroke-opacity="0.2" stroke-width="1.4" stroke-linecap="round" stroke-linejoin="round"/>
<path d="M14.6665 13.28V11.28C14.6746 10.953 14.5622 10.6345 14.3508 10.385C14.1394 10.1355 13.8436 9.97234 13.5198 9.92665C12.8797 9.84224 12.2513 9.68568 11.6465 9.45998C11.4078 9.37029 11.1485 9.35088 10.8992 9.40405C10.6499 9.45722 10.4211 9.58074 10.2398 9.75998L9.39313 10.6067C7.7241 9.65761 6.34216 8.27568 5.39313 6.60665L6.23979 5.75998C6.41903 5.57872 6.54256 5.34988 6.59573 5.10057C6.6489 4.85126 6.62949 4.59193 6.53979 4.35332C6.31409 3.74847 6.15754 3.12003 6.07313 2.47998C6.02784 2.15961 5.86761 1.86664 5.6223 1.65567C5.37699 1.4447 5.06333 1.33013 4.73979 1.33332H2.73979C2.55469 1.33349 2.37164 1.37221 2.20232 1.447C2.033 1.52179 1.8811 1.63102 1.7563 1.76773C1.63151 1.90444 1.53654 2.06564 1.47746 2.24107C1.41838 2.41649 1.39647 2.60229 1.41313 2.78665C1.63195 4.84731 2.33311 6.82745 3.45979 8.56665C4.48335 10.1774 5.84901 11.5431 7.45979 12.5667C9.19113 13.6894 11.1617 14.3904 13.2131 14.6133C13.398 14.63 13.5844 14.6079 13.7603 14.5485C13.9362 14.489 14.0977 14.3934 14.2345 14.2679C14.3713 14.1424 14.4804 13.9897 14.5548 13.8195C14.6292 13.6494 14.6672 13.4657 14.6665 13.28Z" stroke="black" stroke-opacity="0.2" stroke-width="1.4" stroke-linecap="round" stroke-linejoin="round"/>
</g>
<defs>
<clipPath id="clip0_56_1546">
<rect width="16" height="16" fill="white"/>
</clipPath>
</defs>
</svg>
