<svg width="23" height="21" viewBox="0 0 23 21" fill="none" xmlns="http://www.w3.org/2000/svg">
<path d="M18.5066 1.41891C19.1741 1.69547 19.7805 2.10083 20.2913 2.61183C20.8023 3.12258 21.2076 3.72901 21.4842 4.39647C21.7608 5.06393 21.9031 5.77934 21.9031 6.50183C21.9031 7.22431 21.7608 7.93972 21.4842 8.60718C21.2076 9.27464 20.8023 9.88107 20.2913 10.3918L19.2313 11.4518L11.4513 19.2318L3.67129 11.4518L2.61129 10.3918C1.5796 9.36013 1 7.96086 1 6.50183C1 5.04279 1.5796 3.64352 2.61129 2.61183C3.64298 1.58013 5.04226 1.00053 6.50129 1.00053C7.96032 1.00053 9.3596 1.58013 10.3913 2.61183L11.4513 3.67183L12.5113 2.61183C13.022 2.10083 13.6285 1.69547 14.2959 1.41891C14.9634 1.14235 15.6788 1 16.4013 1C17.1238 1 17.8392 1.14235 18.5066 1.41891Z" stroke="#1F1F1F" stroke-width="2" stroke-linecap="round" stroke-linejoin="round"/>
<path d="M18.5066 1.41891C19.1741 1.69547 19.7805 2.10083 20.2913 2.61183C20.8023 3.12258 21.2076 3.72901 21.4842 4.39647C21.7608 5.06393 21.9031 5.77934 21.9031 6.50183C21.9031 7.22431 21.7608 7.93972 21.4842 8.60718C21.2076 9.27464 20.8023 9.88107 20.2913 10.3918L19.2313 11.4518L11.4513 19.2318L3.67129 11.4518L2.61129 10.3918C1.5796 9.36013 1 7.96086 1 6.50183C1 5.04279 1.5796 3.64352 2.61129 2.61183C3.64298 1.58013 5.04226 1.00053 6.50129 1.00053C7.96032 1.00053 9.3596 1.58013 10.3913 2.61183L11.4513 3.67183L12.5113 2.61183C13.022 2.10083 13.6285 1.69547 14.2959 1.41891C14.9634 1.14235 15.6788 1 16.4013 1C17.1238 1 17.8392 1.14235 18.5066 1.41891Z" stroke="black" stroke-opacity="0.2" stroke-width="2" stroke-linecap="round" stroke-linejoin="round"/>
<path d="M18.5066 1.41891C19.1741 1.69547 19.7805 2.10083 20.2913 2.61183C20.8023 3.12258 21.2076 3.72901 21.4842 4.39647C21.7608 5.06393 21.9031 5.77934 21.9031 6.50183C21.9031 7.22431 21.7608 7.93972 21.4842 8.60718C21.2076 9.27464 20.8023 9.88107 20.2913 10.3918L19.2313 11.4518L11.4513 19.2318L3.67129 11.4518L2.61129 10.3918C1.5796 9.36013 1 7.96086 1 6.50183C1 5.04279 1.5796 3.64352 2.61129 2.61183C3.64298 1.58013 5.04226 1.00053 6.50129 1.00053C7.96032 1.00053 9.3596 1.58013 10.3913 2.61183L11.4513 3.67183L12.5113 2.61183C13.022 2.10083 13.6285 1.69547 14.2959 1.41891C14.9634 1.14235 15.6788 1 16.4013 1C17.1238 1 17.8392 1.14235 18.5066 1.41891Z" stroke="black" stroke-opacity="0.2" stroke-width="2" stroke-linecap="round" stroke-linejoin="round"/>
</svg>
