<svg xmlns="http://www.w3.org/2000/svg" width="1063.932" height="905.33301" viewBox="0 0 1063.932 905.33301"><defs><clipPath id="a" clipPathUnits="userSpaceOnUse"><path d="M-471.842 28.876h869.347v-736.752h-869.347Z"/></clipPath><clipPath id="b" clipPathUnits="userSpaceOnUse"><path d="M-290.6 316.55h869.348v-736.753H-290.6Z"/></clipPath></defs><path d="M0 0c2.477-40.482-14.867-53.693-39.647-56.17-21.478 0-34.69-5.79-44.604-17.351l-118.946-204.03c66.079-3.302 129.681-27.257 184.199-105.73 30.567-43.778 84.256-80.953 185.028-99.951-74.337-16.518-127.204 14.87-214.765 42.127-70.21 21.479-177.595 30.567-251.107-3.301L-436.143-679c93.343 77.651 261.025 97.471 380.8 52.041C82.604-679 215.596-694.701 361.806-619.525l-99.947 169.336c-17.355-14.045-34.703-21.479-52.045-23.956l18.998 135.472c-61.122-6.608-113.989 8.255-152.815 52.867-57.82 67.73-113.989 118.116-169.332 129.685 14.037 28.908 42.953 24.777 78.468 12.386 25.607-8.254 71.04 1.655 80.95 32.218z" clip-path="url(#a)" style="fill:#0093a2;fill-opacity:1;fill-rule:nonzero;stroke:none" transform="matrix(1.33333 0 0 -1.33333 581.524 0)"/><path d="M0 0c36.191 0 64.995-28.808 65.732-64.986 0-35.458-28.803-64.999-64.99-64.999-35.453 0-64.994 28.803-64.994 64.253C-64.252-29.542-35.445-.742 0 0" clip-path="url(#b)" style="fill:#eb6604;fill-opacity:1;fill-rule:nonzero;stroke:none" transform="matrix(1.33333 0 0 -1.33333 339.867 383.564)"/></svg>